<?xml version="1.0" encoding="UTF-8"?>
<mxfile host="app.diagrams.net">
  <diagram name="Page-1" id="diagram-1">
    <mxGraphModel dx="1000" dy="1000" grid="1" gridSize="10" guides="1" tooltips="1" connect="1" arrows="1"
      fold="1" page="1" pageScale="1" pageWidth="827" pageHeight="1169" math="0" shadow="0">
      <root>
        <mxCell id="0" />
        <mxCell id="1" parent="0" />
        
        <!-- Customer Entity -->
        <mxCell id="customer" value="Customer" style="shape=rectangle;rounded=1;fillColor=#D5E8D4;strokeColor=#82B366;"
          vertex="1" parent="1">
          <mxGeometry x="100" y="100" width="140" height="100" as="geometry" />
        </mxCell>
        <mxCell id="customer_id" value="id (PK)" style="text;strokeColor=none;fillColor=none;" vertex="1" parent="customer">
          <mxGeometry x="10" y="20" width="120" height="20" as="geometry" />
        </mxCell>
        <mxCell id="customer_name" value="name" style="text;strokeColor=none;fillColor=none;" vertex="1" parent="customer">
          <mxGeometry x="10" y="40" width="120" height="20" as="geometry" />
        </mxCell>
        <mxCell id="customer_email" value="email" style="text;strokeColor=none;fillColor=none;" vertex="1" parent="customer">
          <mxGeometry x="10" y="60" width="120" height="20" as="geometry" />
        </mxCell>

        <!-- Table Entity -->
        <mxCell id="table" value="Table" style="shape=rectangle;rounded=1;fillColor=#FFF2CC;strokeColor=#D6B656;"
          vertex="1" parent="1">
          <mxGeometry x="300" y="100" width="140" height="80" as="geometry" />
        </mxCell>
        <mxCell id="table_id" value="id (PK)" style="text;strokeColor=none;fillColor=none;" vertex="1" parent="table">
          <mxGeometry x="10" y="20" width="120" height="20" as="geometry" />
        </mxCell>
        <mxCell id="table_number" value="number" style="text;strokeColor=none;fillColor=none;" vertex="1" parent="table">
          <mxGeometry x="10" y="40" width="120" height="20" as="geometry" />
        </mxCell>
        <mxCell id="table_capacity" value="capacity" style="text;strokeColor=none;fillColor=none;" vertex="1" parent="table">
          <mxGeometry x="10" y="60" width="120" height="20" as="geometry" />
        </mxCell>

        <!-- Reservation Entity -->
        <mxCell id="reservation" value="Reservation" style="shape=rectangle;rounded=1;fillColor=#E1D5E7;strokeColor=#9673A6;"
          vertex="1" parent="1">
          <mxGeometry x="200" y="250" width="160" height="120" as="geometry" />
        </mxCell>
        <mxCell id="reservation_id" value="id (PK)" style="text;strokeColor=none;fillColor=none;" vertex="1" parent="reservation">
          <mxGeometry x="10" y="20" width="140" height="20" as="geometry" />
        </mxCell>
        <mxCell id="reservation_customer" value="customer_id (FK)" style="text;strokeColor=none;fillColor=none;" vertex="1" parent="reservation">
          <mxGeometry x="10" y="40" width="140" height="20" as="geometry" />
        </mxCell>
        <mxCell id="reservation_table" value="table_id (FK)" style="text;strokeColor=none;fillColor=none;" vertex="1" parent="reservation">
          <mxGeometry x="10" y="60" width="140" height="20" as="geometry" />
        </mxCell>
        <mxCell id="reservation_date" value="date" style="text;strokeColor=none;fillColor=none;" vertex="1" parent="reservation">
          <mxGeometry x="10" y="80" width="140" height="20" as="geometry" />
        </mxCell>
        <mxCell id="reservation_time" value="time" style="text;strokeColor=none;fillColor=none;" vertex="1" parent="reservation">
          <mxGeometry x="10" y="100" width="140" height="20" as="geometry" />
        </mxCell>

        <!-- Relationships -->
        <mxCell id="customer_reservation" edge="1" source="customer" target="reservation" style="edgeStyle=elbowEdgeStyle;">
          <mxGeometry relative="1" as="geometry" />
        </mxCell>
        <mxCell id="table_reservation" edge="1" source="table" target="reservation" style="edgeStyle=elbowEdgeStyle;">
          <mxGeometry relative="1" as="geometry" />
        </mxCell>

      </root>
    </mxGraphModel>
  </diagram>
</mxfile>
